<svg xmlns="http://www.w3.org/2000/svg" xmlns:xlink="http://www.w3.org/1999/xlink" width="500" zoomAndPan="magnify" viewBox="0 0 375 374.999991" height="500" preserveAspectRatio="xMidYMid meet" version="1.0"><defs><clipPath id="4499f9118b"><path d="M 67 350 L 308 350 L 308 361.886719 L 67 361.886719 Z M 67 350 " clip-rule="nonzero"/></clipPath></defs><g clip-path="url(#4499f9118b)"><path fill="#a58452" d="M 300.632812 361.476562 C 262.71875 361.503906 224.808594 361.488281 186.894531 361.488281 C 149.199219 361.488281 111.511719 361.367188 73.820312 361.613281 C 67.710938 361.65625 66.5 359.273438 67.351562 354.027344 C 67.804688 351.273438 69.066406 350.109375 71.789062 350.375 C 72.671875 350.460938 73.574219 350.382812 74.472656 350.382812 C 149.628906 350.375 224.789062 350.363281 299.953125 350.441406 C 302.453125 350.449219 305.851562 348.835938 306.957031 353.335938 C 308.390625 359.152344 306.84375 361.46875 300.632812 361.476562 Z M 300.632812 361.476562 " fill-opacity="1" fill-rule="nonzero"/></g><path fill="#a58452" d="M 301.25 339.722656 L 73.503906 339.722656 C 79.511719 331.839844 87.070312 329.085938 95.539062 329.074219 C 156.699219 328.964844 217.867188 328.996094 279.03125 329.066406 C 287.589844 329.082031 294.875 332.199219 301.25 339.722656 Z M 301.25 339.722656 " fill-opacity="1" fill-rule="nonzero"/><path fill="#a58452" d="M 259.511719 318.992188 C 211.335938 318.742188 163.152344 318.878906 114.976562 318.769531 C 112.136719 318.761719 107.890625 320.671875 107.589844 314.871094 C 107.347656 310.171875 107.804688 306.523438 113.554688 305.890625 C 115.734375 305.65625 117.886719 304.84375 119.964844 304.0625 C 122.96875 302.929688 125.464844 302.019531 125.910156 306.832031 C 126.152344 309.398438 128.476562 310.222656 130.957031 310.171875 C 133.625 310.117188 135.675781 308.421875 135.554688 306.1875 C 134.835938 293 146.890625 295.976562 153.78125 290.175781 L 153.78125 304.421875 C 153.773438 307.8125 155.214844 310.121094 158.8125 310.171875 C 162.371094 310.230469 163.992188 307.941406 164.183594 304.628906 C 164.328125 302.183594 164.242188 299.726562 164.25 297.273438 C 164.265625 286.1875 168.523438 281.125 179.183594 278.925781 C 182.332031 278.28125 181.925781 280.085938 181.929688 281.828125 C 181.96875 288.75 181.988281 295.660156 181.945312 302.578125 C 181.917969 306.414062 182.316406 310.136719 187.265625 310.117188 C 192.257812 310.09375 192.484375 306.273438 192.464844 302.488281 C 192.433594 295.351562 192.9375 288.167969 192.320312 281.089844 C 191.777344 274.929688 193.984375 271.992188 199.726562 269.984375 C 210.296875 266.296875 210.175781 265.976562 210.175781 276.933594 C 210.175781 285.183594 210.179688 293.4375 210.175781 301.699219 C 210.167969 305.582031 209.953125 309.914062 215.328125 310.101562 C 220.886719 310.292969 220.671875 305.964844 220.664062 302.042969 C 220.644531 290.890625 220.929688 279.722656 220.527344 268.585938 C 220.363281 263.882812 221.867188 261.628906 226.363281 260.742188 C 230.847656 259.851562 235.25 258.570312 241.386719 257.027344 C 233.527344 268.929688 239 280.109375 238.476562 291.019531 C 238.253906 295.6875 238.308594 300.398438 238.613281 305.058594 C 238.820312 308.351562 240.75 310.496094 244.332031 310.171875 C 247.59375 309.886719 248.859375 307.714844 248.84375 304.625 C 248.835938 303.289062 248.929688 301.941406 248.851562 300.609375 C 248.691406 297.855469 249.589844 296.792969 252.292969 298.257812 C 255.839844 300.183594 259.570312 301.648438 263.636719 301.933594 C 266.410156 302.136719 266.761719 303.925781 266.769531 306.101562 C 266.777344 307.886719 266.566406 309.699219 266.824219 311.449219 C 267.679688 317.257812 265.519531 319.019531 259.511719 318.992188 Z M 259.511719 318.992188 " fill-opacity="1" fill-rule="nonzero"/><path fill="#a58452" d="M 296.128906 268.671875 C 293.253906 281.921875 283.597656 290.554688 270.195312 291.859375 C 261.320312 292.71875 252.707031 288.160156 249.066406 280.667969 C 245.804688 273.964844 247.144531 265.179688 252.304688 259.445312 C 257.046875 254.167969 264.117188 252.910156 269.886719 256.253906 C 273.585938 258.390625 275.207031 261.558594 274.65625 265.746094 C 274.019531 270.578125 270.589844 272.242188 266.78125 269.238281 C 263.863281 266.9375 261.148438 265.890625 258.773438 269.125 C 256.449219 272.285156 257.570312 275.449219 260.359375 278.042969 C 267.277344 284.46875 279.558594 281.15625 283.726562 271.71875 C 289.054688 259.644531 280.773438 246.359375 266.648438 244.464844 C 263.785156 244.078125 260.859375 244.121094 257.210938 243.925781 C 238.1875 245.546875 219.609375 251.699219 201.203125 258.511719 C 177.148438 267.410156 154.648438 279.914062 130.714844 289.085938 C 122.410156 292.261719 113.949219 295.136719 105.367188 297.429688 C 97.238281 299.605469 89.738281 297.71875 84.335938 290.792969 C 79.082031 284.058594 78.40625 276.429688 81.675781 268.6875 C 85.082031 260.621094 94.957031 257.214844 101.769531 261.574219 C 105.136719 263.730469 107.539062 266.75 105.949219 271.089844 C 104.371094 275.382812 101.375 274.09375 98.261719 272.816406 C 96.226562 271.984375 94.261719 272.867188 93.007812 274.714844 C 91.617188 276.765625 91.78125 278.996094 92.957031 281.039062 C 96.152344 286.617188 101.125 286.511719 106.394531 284.898438 C 123.488281 279.679688 139.707031 272.308594 155.796875 264.640625 C 182.355469 251.992188 209 239.554688 237.910156 233.042969 C 252.9375 229.660156 267.644531 230.074219 281.417969 237.710938 C 293.113281 244.191406 298.769531 256.519531 296.128906 268.671875 Z M 296.128906 268.671875 " fill-opacity="1" fill-rule="nonzero"/><path fill="#a58452" d="M 213.730469 228.871094 C 193.347656 235.898438 175.21875 243.75 157.472656 252.46875 C 154.535156 253.910156 153.058594 252.941406 151.609375 250.488281 C 146.652344 242.070312 144.796875 233.066406 147.226562 223.578125 C 149.128906 216.199219 154.339844 211.539062 161.90625 210.902344 C 181.179688 209.265625 197.117188 217.605469 213.730469 228.871094 Z M 213.730469 228.871094 " fill-opacity="1" fill-rule="nonzero"/><path fill="#a58452" d="M 142.066406 203.367188 C 133.832031 220.550781 131.804688 237.863281 141.714844 255.148438 C 143.414062 258.117188 142.636719 259.4375 139.792969 260.621094 C 134.65625 262.75 129.53125 264.921875 124.539062 267.375 C 121.242188 268.996094 119.960938 267.953125 118.734375 264.75 C 112.867188 249.390625 113.699219 234.226562 119.550781 219.132812 C 126.191406 202.03125 137.289062 187.792969 148.863281 173.894531 C 158.5625 162.257812 168.449219 150.773438 178.253906 139.222656 C 178.609375 139.359375 178.960938 139.492188 179.320312 139.628906 C 176.652344 144.398438 174.042969 149.203125 171.304688 153.925781 C 161.710938 170.496094 150.359375 186.027344 142.066406 203.367188 Z M 142.066406 203.367188 " fill-opacity="1" fill-rule="nonzero"/><path fill="#a58452" d="M 193.050781 205.25 C 180.261719 201.457031 168.496094 198.253906 155.0625 201.550781 C 167.589844 176.054688 184.914062 154.960938 196.035156 130.179688 C 195.957031 138.496094 193.316406 146.3125 191.640625 154.292969 C 189.898438 162.589844 188.3125 170.898438 188.191406 179.433594 C 188.074219 187.949219 189.050781 196.253906 193.050781 205.25 Z M 193.050781 205.25 " fill-opacity="1" fill-rule="nonzero"/><path fill="#a58452" d="M 248.605469 154.414062 C 250.910156 130.539062 249.214844 106.820312 260.15625 85.121094 C 269.671875 113.761719 267.542969 137.621094 248.605469 154.414062 Z M 248.605469 154.414062 " fill-opacity="1" fill-rule="nonzero"/><path fill="#a58452" d="M 268.667969 202.664062 C 264.03125 206.476562 259.296875 210.183594 254.859375 214.214844 C 251.582031 217.183594 249.824219 216.816406 248.511719 212.570312 C 243.4375 196.109375 242.71875 180.21875 254.214844 165.792969 C 256.882812 162.453125 259.535156 159.105469 263.296875 154.371094 C 263.117188 163.132812 262.582031 169.757812 263.304688 176.425781 C 264.058594 183.390625 265.3125 190.09375 269.523438 195.835938 C 271.53125 198.589844 271.148438 200.621094 268.667969 202.664062 Z M 268.667969 202.664062 " fill-opacity="1" fill-rule="nonzero"/><path fill="#a58452" d="M 239.652344 218.496094 C 240.003906 219.289062 240.632812 220.726562 240.410156 220.890625 C 236.703125 223.671875 232.023438 223.328125 227.828125 224.625 C 224.988281 225.5 224.441406 222.976562 223.777344 221.261719 C 220.15625 211.96875 219.316406 202.296875 219.941406 192.394531 C 221.117188 173.894531 225.625 155.941406 228.851562 137.789062 C 232.453125 117.546875 235.003906 97.332031 230.675781 76.828125 C 239.609375 92.585938 241.308594 109.703125 240.136719 127.167969 C 238.839844 146.476562 236.660156 165.730469 235.296875 185.046875 C 234.496094 196.402344 234.90625 207.777344 239.652344 218.496094 Z M 239.652344 218.496094 " fill-opacity="1" fill-rule="nonzero"/><path fill="#a58452" d="M 247.402344 86.269531 C 242.933594 73.957031 236.167969 63.410156 227.519531 53.953125 C 222.214844 48.144531 221.082031 40.632812 218.964844 31.992188 C 231.5 40.28125 241.800781 49.050781 248.347656 61.136719 C 252.695312 69.15625 250.347656 77.859375 247.402344 86.269531 Z M 247.402344 86.269531 " fill-opacity="1" fill-rule="nonzero"/><path fill="#a58452" d="M 209.269531 39.898438 C 198.894531 34.960938 188.269531 32.214844 177.671875 29.222656 C 172.996094 27.90625 169.964844 20.769531 166.011719 16.082031 C 185.585938 13.378906 205.378906 24.15625 209.269531 39.898438 Z M 209.269531 39.898438 " fill-opacity="1" fill-rule="nonzero"/><path fill="#a58452" d="M 137.097656 34.207031 C 133.359375 36.636719 127.546875 39.992188 123.242188 33.160156 C 121.148438 29.839844 118.03125 27.171875 114.558594 23.292969 C 120.195312 21.730469 124.8125 20.101562 129.566406 19.25 C 132.277344 18.769531 136.480469 15.164062 137.777344 20.347656 C 138.902344 24.871094 142.136719 30.9375 137.097656 34.207031 Z M 137.097656 34.207031 " fill-opacity="1" fill-rule="nonzero"/><path fill="#a58452" d="M 222.035156 94.773438 C 219.855469 66.523438 207.527344 43.570312 175.054688 40.027344 C 170.839844 39.570312 168.4375 37.648438 166.523438 33.8125 C 162.9375 26.621094 157.144531 21.703125 148.632812 19.164062 C 149.164062 24.296875 149.15625 28.800781 150.1875 33.050781 C 151.773438 39.613281 149.25 42.546875 142.996094 43.863281 C 138.027344 44.910156 131.074219 45.300781 128.792969 48.605469 C 122.460938 57.769531 115.851562 67.734375 119.878906 80.101562 C 122.230469 87.339844 122.183594 94.5 120.554688 101.84375 C 118.410156 111.464844 114.773438 120.550781 110.917969 129.554688 C 105.992188 141.070312 106.773438 143.890625 116.042969 152.269531 C 120.691406 156.480469 125.515625 156.765625 130.851562 154.445312 C 135.597656 152.386719 137.535156 147.867188 139.097656 143.546875 C 145.082031 126.960938 155.660156 115.09375 171.941406 107.6875 C 182.125 103.054688 183.78125 96.832031 180.117188 86.125 C 179.398438 84.023438 178.582031 81.925781 177.558594 79.960938 C 176.09375 77.148438 176.480469 74.789062 178.871094 72.8125 C 181.199219 70.875 183.550781 71.691406 185.632812 73.207031 C 195.976562 80.777344 204.015625 90.089844 207.199219 102.855469 C 210.488281 116.039062 208.082031 128.96875 205.210938 141.867188 C 201.921875 156.644531 197.511719 171.273438 199.183594 186.703125 C 200.121094 195.378906 203.105469 203.15625 210.1875 211.265625 C 207.800781 185.847656 213.574219 163.320312 217.890625 140.605469 C 220.75 125.484375 223.230469 110.246094 222.035156 94.773438 Z M 141.980469 78.976562 C 141.851562 81.019531 131.703125 85.460938 130.0625 84.414062 C 128.59375 83.472656 129.117188 82.03125 129.523438 80.8125 C 132.027344 73.242188 135.742188 66.25 140.164062 57.34375 C 142.199219 65.828125 142.394531 72.394531 141.980469 78.976562 Z M 141.980469 78.976562 " fill-opacity="1" fill-rule="nonzero"/></svg>