<svg xmlns="http://www.w3.org/2000/svg" viewBox="0 0 1000 1000">
  <defs>
    <style>
      .bg {
        fill: none;
      }
      .icon {
        fill: #987745;
      }
      @media (prefers-color-scheme: dark) {
        .icon {
          fill: #c29f6c;
        }
      }
    </style>
  </defs>
  <path class="icon" d="M875.68,392.17c-239.63,161.88-467.6,219.39-617.04,239.07-117.64,15.51-206.29,10.65-246.97,6.68-1.27-13.83-1.82-28.19-1.39-42.89,0,0,600.84,0,842.63-336.05,5.23,16.78,18.3,64.31,22.77,133.19Z"/>
  <path class="icon" d="M872.11,528.08c-284.94,138.08-505.85,174.89-641.31,181.39-105.9,5.09-177.35-7.05-209.52-14.41-2.8-11.61-5.27-23.95-7.17-36.83,19.78,1.83,48.73,3.69,85.44,3.69,43.48,0,97.86-2.6,160.81-10.85,97.24-12.75,194.67-36.49,289.54-70.55,113.22-40.64,223.12-96.17,326.93-165.19,1.04,31.84.16,69.87-4.72,112.75Z"/>
  <path class="icon" d="M869.08,551.59c-4.18,29.2-10.26,60.39-18.8,93.19h0c-279.87,122.17-488.86,142.25-615.13,137.49-105.59-3.97-172.38-25.49-197.94-35.38-3.39-9.06-6.84-19.15-10.08-30.09,30.16,6.22,81.58,13.79,153.15,13.79,15.7,0,32.4-.36,50.04-1.19,88.13-4.12,182.07-18.98,279.2-44.16,115.97-30.05,236.83-74.98,359.56-133.65Z"/>
  <path class="icon" d="M843.48,669.41c-13.18,45.18-31.1,93.09-55.19,142.81-102.89,15.72-539.07,75.15-728.32-15.11,0,0-5.36-9.22-12.57-25.37,33.94,11.26,95.77,26.8,185.4,30.33,12.26.49,24.67.73,37.21.73,71.75,0,148.03-7.9,227.29-23.56,110.21-21.76,226.58-58.7,346.18-109.83Z"/>
  <path class="icon" d="M890.96,731.82c-21.65,24.43-47.44,49.34-77.94,74.67,19.61-42.21,35.9-85.14,48.73-128.39l29.21,53.72Z"/>
  <path class="icon" d="M952.56,645.16c-12.33,22.9-28.08,46.43-47.79,70.46l-35.33-65c4.65-17.72,8.73-35.48,12.21-53.27,2.45-12.5,4.6-25.01,6.46-37.53l64.45,85.34Z"/>
  <path class="icon" d="M989.21,530.37c-3.06,30.01-11.38,61.78-26.71,94.94l-70.7-93.57c4.36-37.78,6.03-75.46,5.02-112.65l92.39,111.28Z"/>
  <path class="icon" d="M895.21,386.06h0c-4.24-59.76-14.54-102.91-20.78-124.71,33.77,31.36,115.35,119.4,116.19,239.6l-95.41-114.89Z"/>
  <path class="bg" d="M989.21,530.37l-92.39-111.28c1.01,37.19-.66,74.87-5.02,112.65l70.7,93.57c-3.03,6.56-6.33,13.17-9.94,19.85l-64.45-85.34c-1.86,12.52-4.01,25.03-6.46,37.53-3.48,17.79-7.56,35.55-12.21,53.27l35.33,65c-4.39,5.37-8.99,10.77-13.81,16.2l-29.21-53.72c-12.83,43.25-29.12,86.18-48.73,128.39-.89.73-1.79,1.47-2.7,2.22,0,0-7.85,1.34-22.03,3.51,24.09-49.72,42.01-97.63,55.19-142.81-119.6,51.13-235.97,88.07-346.18,109.83-79.26,15.66-155.54,23.56-227.29,23.56-12.54,0-24.95-.24-37.21-.73-89.63-3.53-151.46-19.07-185.4-30.33-3.15-7.04-6.62-15.37-10.19-24.85,25.56,9.89,92.35,31.41,197.94,35.38,126.27,4.76,335.26-15.32,615.13-137.48h0c8.54-32.81,14.62-64,18.8-93.2-122.73,58.67-243.59,103.6-359.56,133.65-97.13,25.18-191.07,40.04-279.2,44.16-17.64.83-34.34,1.19-50.04,1.19-71.57,0-122.99-7.57-153.15-13.79-2.06-6.91-4.03-14.17-5.85-21.74,32.17,7.36,103.62,19.5,209.52,14.41,135.46-6.5,356.37-43.31,641.31-181.39,4.88-42.88,5.76-80.91,4.72-112.75-103.81,69.02-213.71,124.55-326.93,165.19-94.87,34.06-192.3,57.8-289.54,70.55-62.95,8.25-117.33,10.85-160.81,10.85-36.71,0-65.66-1.86-85.44-3.69-.98-6.63-1.79-13.4-2.44-20.31,40.68,3.97,129.33,8.83,246.97-6.68,149.44-19.68,377.41-77.19,617.04-239.07-4.47-68.88-17.54-116.41-22.77-133.19h0c2.4-3.34,4.77-6.72,7.1-10.13,0,0,.02.01.07.05.08.05.22.16.42.31.14.12.31.27.53.43.13.12.29.25.46.38.16.14.35.28.55.45.41.35.91.76,1.47,1.23.83.69,1.81,1.52,2.9,2.48,1.03.88,2.17,1.89,3.41,2.98,1.41,1.26,2.95,2.67,4.61,4.19,6.24,21.8,16.54,64.95,20.78,124.7h0s95.41,114.9,95.41,114.9v.02c.08,9.59-.36,19.39-1.41,29.4Z"/>
  <path class="bg" d="M860.5,249.21c-.2-.15-.35-.25-.41-.31.08.05.22.17.41.31Z"/>
  <path class="icon" d="M401.8,515.28c-137.11,39.34-245.76,48.28-245.76,48.28l-11.59-107.66,232.72-144.08c9.45,76.71,22.02,179.82,24.63,203.46Z"/>
  <path class="icon" d="M666.22,404.55c-28.81,17.11-58.46,32.45-88.27,46.16l-7.81-66.04s-6.62-48.03-39.75-43.07c-33.13,4.97-29.09,55.63-29.09,55.63l9.36,81.77c-30.42,11.68-60.5,21.8-89.51,30.58-4.26-37.47-20.7-171.39-25.36-209.27v-.02l131.29-81.26,130.85,112.64,8.29,72.88Z"/>
  <path class="bg" d="M421.15,509.58c-6.51,1.97-12.95,3.86-19.35,5.7-2.61-23.64-15.18-126.75-24.63-203.46l18.62-11.51c4.66,37.88,21.1,171.8,25.36,209.27Z"/>
  <path class="bg" d="M577.95,450.71c-22.43,10.32-44.96,19.71-67.29,28.29l-9.36-81.77s-4.04-50.66,29.09-55.63c33.13-4.96,39.75,43.07,39.75,43.07l7.81,66.04Z"/>
  <polygon class="icon" points="713.39 309.14 693.02 333.12 528.67 193.56 103.16 460.04 86.46 433.37 531.48 154.66 713.39 309.14"/>
</svg>