<?xml version="1.0" encoding="UTF-8"?>
<svg id="_レイヤー_2" data-name="レイヤー 2" xmlns="http://www.w3.org/2000/svg" viewBox="0 0 591.94 417.36">
  <defs>
    <style>
      .cls-1 {
        fill: none;
      }
    </style>
  </defs>
  <g id="_レイヤー_1-2" data-name="レイヤー 1">
    <g>
      <path d="M522.55,143.39c-144.67,97.73-282.3,132.45-372.52,144.33-71.02,9.36-124.54,6.43-149.1,4.03-.77-8.35-1.1-17.02-.84-25.89,0,0,362.74,0,508.71-202.88,3.16,10.13,11.05,38.82,13.75,80.41Z"/>
      <path d="M520.39,225.44c-172.02,83.36-305.39,105.58-387.17,109.51-63.93,3.07-107.07-4.26-126.49-8.7-1.69-7.01-3.18-14.46-4.33-22.24,11.94,1.11,29.42,2.23,51.58,2.23,26.25,0,59.08-1.57,97.09-6.55,58.7-7.7,117.52-22.03,174.8-42.59,68.35-24.54,134.7-58.06,197.37-99.73.63,19.22.1,42.18-2.85,68.07Z"/>
      <path d="M518.56,239.63c-2.52,17.63-6.19,36.46-11.35,56.26h0c-168.96,73.76-295.13,85.88-371.36,83.01-63.75-2.4-104.07-15.39-119.5-21.36-2.05-5.47-4.13-11.56-6.09-18.17,18.21,3.76,49.25,8.33,92.46,8.33,9.48,0,19.56-.22,30.21-.72,53.21-2.49,109.92-11.46,168.56-26.66,70.01-18.14,142.98-45.27,217.07-80.69Z"/>
      <path d="M503.11,310.76c-7.96,27.28-18.78,56.2-33.32,86.22-62.12,9.49-325.45,45.37-439.7-9.12,0,0-3.24-5.57-7.59-15.32,20.49,6.8,57.82,16.18,111.93,18.31,7.4.3,14.89.44,22.46.44,43.32,0,89.37-4.77,137.22-14.22,66.54-13.14,136.79-35.44,209-66.31Z"/>
      <path d="M531.77,348.44c-13.07,14.75-28.64,29.79-47.05,45.08,11.84-25.48,21.67-51.4,29.42-77.51l17.63,32.43Z"/>
      <path d="M568.96,296.12c-7.44,13.83-16.95,28.03-28.85,42.54l-21.33-39.24c2.81-10.7,5.27-21.42,7.37-32.16,1.48-7.55,2.78-15.1,3.9-22.66l38.91,51.52Z"/>
      <path d="M591.09,226.82c-1.85,18.12-6.87,37.3-16.13,57.32l-42.68-56.49c2.63-22.81,3.64-45.56,3.03-68.01l55.78,67.18Z"/>
      <path d="M534.34,139.7h0c-2.56-36.08-8.78-62.13-12.55-75.29,20.39,18.93,69.64,72.08,70.15,144.65l-57.6-69.36Z"/>
      <path class="cls-1" d="M591.94,209.06h0c.05,5.8-.22,11.72-.85,17.76l-55.78-67.18c.61,22.45-.4,45.2-3.03,68.01l42.68,56.49c-1.83,3.96-3.82,7.95-6,11.98l-38.91-51.52c-1.12,7.56-2.42,15.11-3.9,22.66-2.1,10.74-4.56,21.46-7.37,32.16l21.33,39.24c-2.65,3.24-5.43,6.5-8.34,9.78l-17.63-32.43c-7.75,26.11-17.58,52.03-29.42,77.51-.54.44-1.08.89-1.63,1.34,0,0-4.74.81-13.3,2.12,14.54-30.02,25.36-58.94,33.32-86.22-72.21,30.87-142.46,53.17-209,66.31-47.85,9.45-93.9,14.22-137.22,14.22-7.57,0-15.06-.14-22.46-.44-54.11-2.13-91.44-11.51-111.93-18.31-1.9-4.25-4-9.28-6.15-15,15.43,5.97,55.75,18.96,119.5,21.36,76.23,2.87,202.4-9.25,371.36-83h0c5.16-19.81,8.83-38.64,11.35-56.27-74.09,35.42-147.06,62.55-217.07,80.69-58.64,15.2-115.35,24.17-168.56,26.66-10.65.5-20.73.72-30.21.72-43.21,0-74.25-4.57-92.46-8.33-1.24-4.17-2.43-8.55-3.53-13.12,19.42,4.44,62.56,11.77,126.49,8.7,81.78-3.93,215.15-26.15,387.17-109.51,2.95-25.89,3.48-48.85,2.85-68.07-62.67,41.67-129.02,75.19-197.37,99.73-57.28,20.56-116.1,34.89-174.8,42.59-38.01,4.98-70.84,6.55-97.09,6.55-22.16,0-39.64-1.12-51.58-2.23-.59-4-1.08-8.09-1.47-12.26,24.56,2.4,78.08,5.33,149.1-4.03,90.22-11.88,227.85-46.6,372.52-144.33-2.7-41.59-10.59-70.28-13.75-80.41h0c1.45-2.02,2.88-4.06,4.29-6.12,0,0,.01.01.04.03.04.04.13.1.25.19.09.07.19.16.32.26.08.07.18.15.28.23.1.08.21.17.33.27.25.21.55.46.89.74.5.42,1.09.92,1.75,1.5.62.53,1.31,1.14,2.06,1.8.85.76,1.78,1.61,2.78,2.53,3.77,13.16,9.99,39.21,12.55,75.28h0s57.6,69.37,57.6,69.37Z"/>
      <path class="cls-1" d="M513.38,57.08c-.12-.09-.21-.15-.25-.19.05.03.13.1.25.19Z"/>
      <path d="M236.46,217.71c-82.78,23.75-148.37,29.15-148.37,29.15l-7-65,140.5-86.98c5.7,46.31,13.29,108.56,14.87,122.83Z"/>
      <path d="M396.09,150.86c-17.39,10.33-35.29,19.59-53.29,27.87l-4.71-39.87s-4-29-24-26-17.56,33.58-17.56,33.58l5.65,49.37c-18.37,7.05-36.53,13.16-54.04,18.46-2.57-22.62-12.5-103.47-15.31-126.34h0s79.26-49.07,79.26-49.07l79,68,5,44Z"/>
      <path class="cls-1" d="M248.14,214.27c-3.93,1.19-7.82,2.33-11.68,3.44-1.58-14.27-9.17-76.52-14.87-122.83l11.24-6.95c2.81,22.87,12.74,103.72,15.31,126.34Z"/>
      <path class="cls-1" d="M342.8,178.73c-13.54,6.23-27.14,11.9-40.62,17.08l-5.65-49.37s-2.44-30.58,17.56-33.58,24,26,24,26l4.71,39.87Z"/>
      <polygon points="56.16 184.36 46.08 168.26 314.75 0 424.57 93.26 412.27 107.74 313.05 23.48 56.16 184.36"/>
    </g>
  </g>
</svg>